<?xml version="1.0" encoding="UTF-8" standalone="no"?>
<!-- Created with Inkscape (http://www.inkscape.org/) -->

<svg
   xmlns:dc="http://purl.org/dc/elements/1.1/"
   xmlns:cc="http://creativecommons.org/ns#"
   xmlns:rdf="http://www.w3.org/1999/02/22-rdf-syntax-ns#"
   xmlns:svg="http://www.w3.org/2000/svg"
   xmlns="http://www.w3.org/2000/svg"
   xmlns:sodipodi="http://sodipodi.sourceforge.net/DTD/sodipodi-0.dtd"
   xmlns:inkscape="http://www.inkscape.org/namespaces/inkscape"
   version="1.1"
   id="svg10"
   xml:space="preserve"
   width="690"
   height="690"
   viewBox="0 0 690 690"
   sodipodi:docname="logo.svg"
   inkscape:version="0.92.2 5c3e80d, 2017-08-06"><metadata
     id="metadata16"><rdf:RDF><cc:Work
         rdf:about=""><dc:format>image/svg+xml</dc:format><dc:type
           rdf:resource="http://purl.org/dc/dcmitype/StillImage" /><dc:title></dc:title></cc:Work></rdf:RDF></metadata><defs
     id="defs14"><clipPath
       clipPathUnits="userSpaceOnUse"
       id="clipPath26"><path
         d="M 0,520.557 H 520.556 V 0 H 0 Z"
         id="path24"
         inkscape:connector-curvature="0" /></clipPath></defs><sodipodi:namedview
     pagecolor="#ffffff"
     bordercolor="#666666"
     borderopacity="1"
     objecttolerance="10"
     gridtolerance="10"
     guidetolerance="10"
     inkscape:pageopacity="0"
     inkscape:pageshadow="2"
     inkscape:window-width="1477"
     inkscape:window-height="961"
     id="namedview12"
     showgrid="false"
     inkscape:zoom="1.1410854"
     inkscape:cx="347.03732"
     inkscape:cy="347.03799"
     inkscape:window-x="0"
     inkscape:window-y="0"
     inkscape:window-maximized="0"
     inkscape:current-layer="g18" /><g
     id="g18"
     inkscape:groupmode="layer"
     inkscape:label="修正omni"
     transform="matrix(1.3333333,0,0,-1.3333333,0,690.00001)"><g
       id="g141"
       transform="matrix(1.3644812,0,0,1.3644812,-96.395455,-191.21018)"><g
         transform="translate(262.3042,363.8901)"
         id="g74"><path
           inkscape:connector-curvature="0"
           id="path76"
           style="fill:#48aac0;fill-opacity:1;fill-rule:nonzero;stroke:none"
           d="m 0,0 h -69.116 l -35.221,-44.329 c -0.33,3.358 -0.504,6.763 -0.504,10.205 0,56.782 46.031,102.812 102.813,102.812 17.901,0 34.729,-4.576 49.384,-12.619 l 28.498,35.52 c -22.62,14.041 -49.302,22.158 -77.882,22.158 -81.666,0 -147.87,-66.204 -147.87,-147.871 0,-19.246 3.679,-37.632 10.371,-54.496 l -49.105,-61.802 h 46.577 22.538 z" /></g><g
         transform="translate(446.8853,446.0669)"
         id="g78"><path
           inkscape:connector-curvature="0"
           id="path80"
           style="fill:#d18423;fill-opacity:1;fill-rule:nonzero;stroke:none"
           d="m 0,0 h -47.163 -21.953 l -119.525,-150.422 h 69.12 l 35.221,44.328 c 0.334,-3.357 0.504,-6.761 0.504,-10.206 0,-56.781 -46.03,-102.811 -102.813,-102.811 -18.064,0 -35.031,4.664 -49.78,12.842 l -28.49,-35.5 c 22.705,-14.19 49.524,-22.402 78.27,-22.402 81.667,0 147.867,66.204 147.867,147.871 0,19.246 -3.676,37.634 -10.367,54.498 z" /></g></g></g></svg>